<svg version="1.1" xmlns="http://www.w3.org/2000/svg" viewBox="0 0 180.66668701171875 337.3333435058594" width="180.66668701171875" height="337.3333435058594" class="excalidraw-svg">
  <!-- svg-source:excalidraw -->
  
  <defs>
    <style class="style-fonts">
      @font-face {
        font-family: "Virgil";
        src: url("https://excalidraw.com/Virgil.woff2");
      }
      @font-face {
        font-family: "Cascadia";
        src: url("https://excalidraw.com/Cascadia.woff2");
      }
      @font-face {
        font-family: "Assistant";
        src: url("https://excalidraw.com/Assistant-Regular.woff2");
      }
    </style>
    
  </defs>
  <rect x="0" y="0" width="180.66668701171875" height="337.3333435058594" fill="#ffffff"></rect><g stroke-linecap="round" transform="translate(10 10) rotate(0 80.33334350585938 158.6666717529297)"><path d="M32 0 C69.45 0, 106.9 0, 128.67 0 C150 0, 160.67 10.67, 160.67 32 C160.67 91.04, 160.67 150.08, 160.67 285.33 C160.67 306.67, 150 317.33, 128.67 317.33 C94.74 317.33, 60.81 317.33, 32 317.33 C10.67 317.33, 0 306.67, 0 285.33 C0 208.17, 0 131.02, 0 32 C0 10.67, 10.67 0, 32 0" stroke="none" stroke-width="0" fill="#ff2424"></path><path d="M32 0 C64.26 0, 96.51 0, 128.67 0 M32 0 C66.17 0, 100.34 0, 128.67 0 M128.67 0 C150 0, 160.67 10.67, 160.67 32 M128.67 0 C150 0, 160.67 10.67, 160.67 32 M160.67 32 C160.67 84.99, 160.67 137.97, 160.67 285.33 M160.67 32 C160.67 117.38, 160.67 202.77, 160.67 285.33 M160.67 285.33 C160.67 306.67, 150 317.33, 128.67 317.33 M160.67 285.33 C160.67 306.67, 150 317.33, 128.67 317.33 M128.67 317.33 C93.7 317.33, 58.74 317.33, 32 317.33 M128.67 317.33 C90.54 317.33, 52.41 317.33, 32 317.33 M32 317.33 C10.67 317.33, 0 306.67, 0 285.33 M32 317.33 C10.67 317.33, 0 306.67, 0 285.33 M0 285.33 C0 223.1, 0 160.87, 0 32 M0 285.33 C0 194.99, 0 104.65, 0 32 M0 32 C0 10.67, 10.67 0, 32 0 M0 32 C0 10.67, 10.67 0, 32 0" stroke="transparent" stroke-width="2" fill="none"></path></g><g transform="translate(71.99349975585938 157.1666717529297) rotate(0 18.33984375 11.5)"><text x="18.33984375" y="0" font-family="Helvetica, Segoe UI Emoji" font-size="20px" fill="#ffffff" text-anchor="middle" style="white-space: pre;" direction="ltr" dominant-baseline="text-before-edge">Test</text></g></svg>